<svg width="390" height="329" version="1.1" viewBox="0 0 390 329" xmlns="http://www.w3.org/2000/svg">
    <rect x="163" y="28.965" width="64" height="271.07" fill="#2f4674" fill-rule="evenodd" stop-color="#000000"/>
    <path d="m291 4.5c-53.019 0-96 42.981-96 96v128c0 28.427-12.366 53.957-32 71.535v24.465c53.019 0 96-42.981 96-96v-32h64v-64h-64v-32c0-17.673 14.327-32 32-32s32 14.327 32 32h64c0-53.019-42.981-96-96-96z" fill="#2f4674"/>
    <g transform="translate(-1.9996 .15133)" fill="#9c1134">
        <path d="m229 4.3487c-53.019 0-96 42.981-96 96v32h-32c-53.019 0-96 42.981-96 96 0 53.019 42.981 96 96 96 53.019 0 96-42.981 96-96v-128c0-28.427 12.366-53.957 32-71.535zm-128 192h32v32c0 17.673-14.327 32-32 32-17.673 0-32-14.327-32-32s14.327-32 32-32z" fill="#9c1134"/>
    </g>
</svg>
