<svg width="208" height="250" version="1.1" viewBox="0 0 416 500" xmlns="http://www.w3.org/2000/svg">
    <g>
        <g id="xsd" fill="#255b25">
            <path d="m123.46 219.79h-8.9531v-20.011h8.3773q3.2243 7.6665 7.0531 7.6665 3.8576 0 3.8576-3.5734 0-1.8192-0.83485-2.7937-0.86365-1.0395-4.5773-3.0536-2.994-1.8192-6.6213-4.223-3.1379-2.0141-4.9516-5.0677-1.8712-3.0536-2.5046-5.9772-0.69092-2.9236-0.69092-7.6665 0-10.46 3.2818-15.398 3.2531-4.8728 8.2622-4.8728 5.1818 0 8.694 4.418v-3.2485h8.8379v18.322h-8.1758q-3.0516-6.562-7.2546-6.562-3.3106 0-3.3106 3.9632 0 1.8841 0.97879 2.4689 0.83485 0.58473 5.5273 2.7937 5.3258 2.5338 8.3198 5.0677 2.9652 2.5338 4.4621 6.6919 1.4682 4.1581 1.4682 10.2 0 10.915-3.5985 16.113-3.5697 5.1326-8.8092 5.1326-5.2106 0-8.8379-4.288zm-39.037-0.77965h-10.968v-19.816h3.5121l4.1167-10.07-4.9228-13.319h-3.3394v-19.816h14.135l5.1243 16.957 5.2682-16.957h10.939v19.816h-3.9152l-3.5985 9.1608 5.297 14.228h3.2243v19.816h-13.847l-5.3834-17.217z"/>
            <path d="m166.4 166.67v83.333h-41.6c-68.925 0-124.8 55.965-124.8 125s55.875 125 124.8 125c68.925 0 124.8-55.965 124.8-125zm-41.6 166.16h41.6v42.178c0 23.012-18.625 41.667-41.6 41.667-22.975 0-41.6-18.655-41.6-41.667 0-23.012 18.625-41.667 41.6-41.667z" />
        </g>
        <g id="xsd" fill="#303075">
            <path d="m291.2 2.8e-6c-68.925 0-124.8 55.965-124.8 125l83.2 208.33v-83.333h41.6v-83.333h-41.6v-41.667c0-23.012 18.625-41.667 41.6-41.667s41.6 18.655 41.6 41.667h83.2c0-69.035-55.875-125-124.8-125z" />
            <path d="m369.13 352.06h-21.879v-19.816h3.4546v-23.389h-3.5121v-19.816h18.021v8.641q2.0727-3.9632 5.4409-6.8868 3.3394-2.9236 6.391-2.9236 7.1106 0 9.5288 12.344 6.4197-12.344 13.099-12.344 3.6561 0 6.0167 3.5084 2.4182 3.5734 3.397 9.4856 1.0076 6.1072 1.0076 17.152v14.228h3.6849v19.816h-18.165v-27.093q0-10.59-0.71971-13.189-0.71971-2.5988-2.5909-2.5988-2.3606 0-4.75 4.0281v19.036h3.944v19.816h-18.424v-26.963q0-10.395-0.63333-13.189-0.63334-2.7287-2.5621-2.7287-2.2167 0-4.6637 4.0281v19.036h3.9152zm-34.373 0h-22.512v-19.816h3.8v-23.389h-3.8v-19.816h17.33v15.788q0.9788-5.9123 3.0228-10.2 1.9576-4.223 3.9728-5.5224 1.9288-1.2344 5.6712-1.2344v27.742q-0.4894-0.0648-1.2091-0.0648-4.4334 0-6.5925 2.0141-2.2455 2.079-3.0515 5.4575-0.83485 3.5084-0.86364 9.2258h4.2318zm-51.444-31.705q0 15.073 4.7788 15.073 5.0667 0 5.0667-15.203 0-6.9518-1.2379-10.785-1.2667-3.8332-3.5697-3.8332-2.2743 0-3.6561 3.7683-1.3818 3.7683-1.3818 10.98zm-14.653-0.12995q0-13.904 5.1818-23.454 5.1818-9.5506 13.991-9.5506 8.8667 0 14.423 9.2257 5.5561 9.2257 5.5561 24.039 0 14.293-5.297 23.844-5.297 9.5506-13.991 9.5506-9.3849 0-14.624-9.5506-5.2394-9.4856-5.2394-24.104z" />
        </g>
    </g>
</svg>