<svg width="378" height="329" version="1.1" viewBox="0 0 378 329" xmlns="http://www.w3.org/2000/svg">
    <g>
        <path fill="hsl(60, 100%, 50%)" d="m101 324.35-0.41612-39.96 32.984-41.46 4.7301-27.825 79.532-198.83 11.17-11.926h18l115.33 14.873-125.33 289.13-108 16h-28.001"/>
        <path fill="hsl(220, 42%, 32%)" d="m229 4.3478c53.019 0 96 42.981 96 96h-64c0-17.673-14.327-32-32-32s-32 14.327-32 32v32h64v64h-64v32c0 53.019-42.981 96-96 96h144l128-320z"/>
        <path fill="hsl(345, 80%, 34%)" d="m229 4.3478c-53.019 0-96 42.981-96 96v32h-32c-53.019 0-96 42.981-96 96s42.981 96 96 96zm-128 192h32v32c0 17.673-14.327 32-32 32-17.673 0-32-14.327-32-32s14.327-32 32-32z"/>
    </g>
</svg>
