<svg width="386" height="322" version="1.1" viewBox="0 0 386 322" xmlns="http://www.w3.org/2000/svg">
    <path d="m289 1c-211.51 0-57.256 291.88-195.88 291.88v28.117h67.883c53.019 0 96-42.981 96-96v-32h64v-64h-64v-32c0-17.673 14.327-32 32-32s32 14.327 32 32h64c0-53.019-42.981-96-96-96z" fill="#2f4674"/>
    <path d="m225 1c-53.019 2e-5 -96 42.981-96 96v32h-32c-53.019 0-96 42.981-96 96s42.981 96 96 96c53.019 0 96-42.981 96-96v-128c0-41.795 26.719-77.334 64-90.516 10.011-3.5396 20.777-5.4844 32-5.4844zm-128 192h32v32c0 17.673-14.327 32-32 32-17.673 0-32-14.327-32-32s14.327-32 32-32z" fill="#ff4000"/>
</svg>
